<svg width="24" height="19" viewBox="0 0 24 19" fill="none" xmlns="http://www.w3.org/2000/svg">
<g clip-path="url(#clip0_49_814)">
<path d="M20.0325 18.4354H3.96753C3.12246 18.4343 2.31228 18.0586 1.71472 17.3907C1.11717 16.7229 0.781022 15.8174 0.780029 14.8729V4.12671C0.781022 3.18222 1.11717 2.27672 1.71472 1.60887C2.31228 0.941008 3.12246 0.565318 3.96753 0.564209H20.0325C20.8776 0.565318 21.6878 0.941008 22.2853 1.60887C22.8829 2.27672 23.219 3.18222 23.22 4.12671V14.8729C23.219 15.8174 22.8829 16.7229 22.2853 17.3907C21.6878 18.0586 20.8776 18.4343 20.0325 18.4354ZM3.96753 1.82156C3.42052 1.82156 2.89592 2.06442 2.50912 2.49672C2.12233 2.92902 1.90503 3.51535 1.90503 4.12671V14.8729C1.90503 15.4842 2.12233 16.0706 2.50912 16.5029C2.89592 16.9352 3.42052 17.178 3.96753 17.178H20.0325C20.5795 17.178 21.1041 16.9352 21.4909 16.5029C21.8777 16.0706 22.095 15.4842 22.095 14.8729V4.12671C22.095 3.51535 21.8777 2.92902 21.4909 2.49672C21.1041 2.06442 20.5795 1.82156 20.0325 1.82156H3.96753Z" fill="#E0E0E0"/>
<path d="M12 12.0484C11.3061 12.0497 10.6307 11.798 10.0762 11.3317L1.31999 3.93013C1.25812 3.8816 1.20564 3.81964 1.16568 3.74793C1.12572 3.67623 1.09909 3.59626 1.0874 3.51281C1.07571 3.42935 1.07918 3.34411 1.09762 3.26219C1.11606 3.18026 1.14908 3.10333 1.19471 3.03599C1.24034 2.96865 1.29765 2.91227 1.36321 2.87024C1.42877 2.8282 1.50123 2.80136 1.57628 2.79132C1.65133 2.78128 1.72742 2.78825 1.8 2.81181C1.87259 2.83537 1.94018 2.87503 1.99874 2.92844L10.755 10.3384C11.1146 10.6384 11.5513 10.8005 12 10.8005C12.4487 10.8005 12.8854 10.6384 13.245 10.3384L22.0012 2.92844C22.0598 2.87503 22.1274 2.83537 22.2 2.81181C22.2726 2.78825 22.3486 2.78128 22.4237 2.79132C22.4987 2.80136 22.5712 2.8282 22.6368 2.87024C22.7023 2.91227 22.7596 2.96865 22.8053 3.03599C22.8509 3.10333 22.8839 3.18026 22.9024 3.26219C22.9208 3.34411 22.9243 3.42935 22.9126 3.51281C22.9009 3.59626 22.8743 3.67623 22.8343 3.74793C22.7943 3.81964 22.7419 3.8816 22.68 3.93013L13.9237 11.3317C13.3693 11.798 12.6939 12.0497 12 12.0484Z" fill="#E0E0E0"/>
<path d="M1.56375 16.6838C1.44967 16.684 1.33823 16.6454 1.24422 16.5731C1.15022 16.5009 1.07809 16.3984 1.03741 16.2793C0.996724 16.1602 0.989414 16.03 1.01644 15.9062C1.04348 15.7823 1.10357 15.6705 1.18875 15.5857L8.08875 8.70798C8.20014 8.59682 8.34648 8.53967 8.49557 8.5491C8.64467 8.55853 8.7843 8.63377 8.88375 8.75827C8.98321 8.88277 9.03434 9.04632 9.0259 9.21295C9.01747 9.37958 8.95015 9.53564 8.83875 9.6468L1.93875 16.5245C1.83628 16.6287 1.70228 16.6856 1.56375 16.6838ZM22.4363 16.6838C22.2977 16.6856 22.1637 16.6287 22.0613 16.5245L15.1613 9.6468C15.0499 9.53564 14.9825 9.37958 14.9741 9.21295C14.9657 9.04632 15.0168 8.88277 15.1163 8.75827C15.2157 8.63377 15.3553 8.55853 15.5044 8.5491C15.6535 8.53967 15.7999 8.59682 15.9113 8.70798L22.8075 15.5857C22.8927 15.6705 22.9528 15.7823 22.9798 15.9062C23.0068 16.03 22.9995 16.1602 22.9589 16.2793C22.9182 16.3984 22.846 16.5009 22.752 16.5731C22.658 16.6454 22.5466 16.684 22.4325 16.6838H22.4363Z" fill="#E0E0E0"/>
</g>
<defs>
<clipPath id="clip0_49_814">
<rect width="24" height="19" fill="white"/>
</clipPath>
</defs>
</svg>
