<svg width="18" height="21" viewBox="0 0 18 21" fill="none" xmlns="http://www.w3.org/2000/svg">
<path d="M6.93136 18.6133C6.9312 18.4785 6.87321 18.3508 6.77299 18.2644C6.67196 18.1792 6.54011 18.1432 6.41149 18.1658C5.00939 18.4339 3.23117 18.4375 2.71474 16.9415C2.39709 16.1419 1.88803 15.4384 1.23518 14.8968C1.10005 14.8253 0.978259 14.7297 0.875404 14.6145C0.840653 14.3955 0.657591 14.2344 0.442467 14.2336H0.440691C0.198025 14.2336 0.000976194 14.436 7.92452e-06 14.6864C-0.00257422 15.2049 0.626605 15.5928 0.812518 15.6949C1.27967 16.1278 1.64746 16.6625 1.88932 17.2603C2.19659 18.1508 3.13305 19.5287 6.05171 19.1443C6.0543 19.4754 6.0586 19.6468 6.06204 19.7773L6.06635 20.0454C6.06635 20.2965 6.26366 20.5 6.50703 20.5C6.75039 20.5 6.94771 20.2965 6.94771 20.0454L6.94341 19.7524C6.93824 19.5695 6.93136 19.3059 6.93136 18.6133ZM16.8622 4.39271C16.8356 4.35809 16.8071 4.32169 16.7779 4.28528C16.8371 4.09312 16.8836 3.89708 16.9173 3.69848C17.0537 2.72279 16.9328 1.72719 16.567 0.81643C16.5188 0.691299 16.4191 0.594691 16.295 0.552796C16.1702 0.51018 15.0315 0.194108 12.6551 1.80909C10.6641 1.28704 8.57811 1.28704 6.58708 1.80909C4.21152 0.212752 3.07968 0.511955 2.95402 0.550132C2.82755 0.591306 2.72555 0.688691 2.67601 0.815597C2.30359 1.74012 2.18336 2.75204 2.32828 3.74193C2.36201 3.92343 2.40483 4.103 2.45653 4.27996C2.42554 4.31908 2.39628 4.35809 2.36874 4.39626C1.62261 5.37272 1.22561 6.58468 1.24465 7.82783C1.2425 8.10978 1.25514 8.39161 1.28252 8.67217C1.58205 12.9125 4.23389 14.0924 6.5243 14.4955C6.37513 14.7714 6.26361 15.0671 6.19287 15.3745C6.13488 15.6181 6.27937 15.8642 6.51564 15.9241C6.7519 15.9839 6.99043 15.8348 7.04842 15.5911C7.12997 15.1732 7.33466 14.7915 7.63451 14.4982C7.81789 14.3327 7.83656 14.0452 7.67614 13.8561C7.60384 13.7709 7.50341 13.7165 7.39437 13.7036C4.96464 13.4195 2.44276 12.5911 2.16039 8.5896C2.13548 8.33651 2.12403 8.0822 2.12602 7.82783C2.10939 6.78434 2.4426 5.76693 3.06935 4.94761C3.13563 4.85528 3.20965 4.77093 3.28281 4.68748C3.39454 4.56029 3.42752 4.37906 3.36802 4.2187C3.29282 4.01366 3.23547 3.80213 3.19674 3.58655C3.09119 2.85569 3.16156 2.10929 3.40159 1.41311C4.44826 1.56344 5.43674 2.00031 6.26426 2.67829C6.37109 2.75265 6.50429 2.77473 6.62834 2.73866C8.58887 2.18998 10.6558 2.18998 12.6163 2.73866C12.741 2.77462 12.8748 2.7522 12.982 2.6774C13.8038 1.99243 14.7918 1.55295 15.8388 1.4069C16.076 2.09259 16.1478 2.82761 16.0479 3.54838C16.009 3.77744 15.9482 4.00201 15.8663 4.2187C15.8068 4.37906 15.8398 4.56024 15.9515 4.68748C16.029 4.77537 16.1065 4.87392 16.1744 4.96182C16.8027 5.77481 17.1363 6.78833 17.1179 7.82783C17.1199 8.08786 17.1075 8.34783 17.0809 8.60647C16.8011 12.5893 14.2698 13.4177 11.8305 13.7036C11.5885 13.7322 11.4148 13.9579 11.4426 14.2076C11.4551 14.32 11.5078 14.4236 11.5904 14.4981C11.8942 14.7936 12.0977 15.1821 12.1706 15.6062C12.2457 15.9056 12.2807 16.2142 12.2746 16.5233V18.7589C12.2652 19.3733 12.2652 19.8341 12.2652 20.0454C12.2656 20.2964 12.4631 20.4997 12.7065 20.4993C12.9494 20.4989 13.1462 20.2959 13.1466 20.0454C13.1466 19.8358 13.1466 19.3804 13.156 18.766V16.5233C13.163 16.1383 13.1186 15.7542 13.0244 15.3815C12.9581 15.0717 12.8491 14.7734 12.7008 14.4955C14.9997 14.0933 17.6618 12.9142 17.9588 8.69076C17.988 8.4041 18.0015 8.11599 17.9993 7.82778C18.0193 6.58113 17.6172 5.36634 16.8622 4.39271Z" fill="#E0E0E0"/>
</svg>
