<svg width="18" height="19" viewBox="0 0 18 19" fill="none" xmlns="http://www.w3.org/2000/svg">
<path d="M3 0.5C1.34315 0.5 0 1.84315 0 3.5V15.5C0 17.1569 1.34315 18.5 3 18.5H15C16.6569 18.5 18 17.1569 18 15.5V3.5C18 1.84315 16.6569 0.5 15 0.5H3ZM9.52114 15.8379C9.25546 16.3777 8.74829 16.7324 8.16062 16.9036C7.2576 17.111 6.39389 16.9928 5.75136 16.6071C5.60817 16.5193 5.47543 16.4156 5.35363 16.2992C4.93258 15.8967 5.13671 15.2372 5.63345 14.933L5.97305 14.725C6.07063 14.6653 6.16774 14.6848 6.22454 14.7841C6.39936 15.077 6.55013 15.2843 6.84648 15.4299C7.13765 15.5293 7.77686 15.5928 8.02368 15.0804C8.17445 14.8198 8.1265 13.982 8.1265 13.0551C8.12638 11.8824 8.13074 10.7136 8.13245 9.55104C8.13313 9.08544 8.51056 8.708 8.97617 8.708C9.44177 8.708 9.81922 9.08548 9.8199 9.55108C9.82176 10.8304 9.82631 12.0688 9.81922 13.3379C9.82282 14.2854 9.90504 15.1301 9.52114 15.8379ZM16.5158 15.3615C15.9297 17.3663 12.6621 17.4314 11.3563 16.1069C11.2917 16.0339 11.2328 15.9692 11.1783 15.9081C10.8862 15.5807 11.0439 15.0995 11.4239 14.8803C11.8155 14.6545 12.2817 14.807 12.6244 15.1019C12.8441 15.2908 13.0959 15.4141 13.428 15.4832C14.2557 15.5843 15.0885 15.2999 14.9017 14.4208C14.7097 13.7028 13.2068 13.5281 12.184 12.7603C11.1456 12.0629 10.9022 10.3683 11.7556 9.40006C12.04 9.04194 12.525 8.77467 13.0339 8.64622L13.5649 8.57754C14.5846 8.55694 15.222 8.82622 15.6898 9.34866C15.972 9.63457 15.9256 10.0574 15.5872 10.2737C15.2148 10.5117 14.6381 10.3812 14.2481 10.1733C14.1906 10.1427 14.1317 10.1174 14.0721 10.0975C13.6197 9.96037 13.0491 10.1094 12.9308 10.5875C12.9042 10.683 12.8984 10.7743 12.9154 10.893C12.9369 11.0429 12.9865 11.192 13.0876 11.3047C13.3485 11.5954 13.8532 11.757 14.3137 11.9686C15.9022 12.6128 16.4386 13.3036 16.5705 14.1259C16.6975 14.8338 16.5398 15.293 16.5158 15.3615Z" fill="white"/>
</svg>
