<svg width="19" height="21" viewBox="0 0 19 21" fill="none" xmlns="http://www.w3.org/2000/svg">
<path d="M4.8316 7.50421H1.30359C1.06019 7.50403 0.862818 7.72759 0.862657 8.00344V20.0002C0.862495 20.2761 1.05971 20.4998 1.30305 20.5H4.83106C5.07446 20.5002 5.27183 20.2766 5.27199 20.0007V8.00405C5.27215 7.72813 5.07494 7.50439 4.8316 7.50421ZM4.39013 19.5003H1.74452V8.50388H4.39013V19.5003ZM14.0907 7.50421C13.134 7.50427 12.204 7.86219 11.4451 8.52243V8.00405C11.4452 7.72813 11.248 7.50439 11.0047 7.50421H7.47666C7.23326 7.50403 7.03589 7.72759 7.03573 8.00344V20.0002C7.03557 20.2761 7.23278 20.4998 7.47618 20.5H11.0041C11.2475 20.5002 11.4449 20.2766 11.4451 20.0007V14.5019C11.4451 13.6738 12.0373 13.0024 12.7679 13.0024C13.4984 13.0024 14.0907 13.6738 14.0907 14.5019V20.0002C14.0905 20.2761 14.2877 20.4998 14.5311 20.5H18.0591C18.3025 20.5002 18.4998 20.2766 18.5 20.0007V12.5026C18.4971 9.74341 16.5247 7.50744 14.0907 7.50421ZM17.6181 19.5003H14.9725V14.5019C14.9725 13.1217 13.9855 12.0028 12.7679 12.0028C11.5502 12.0028 10.5632 13.1217 10.5632 14.5019V19.5003H7.91759V8.50388H10.5632V9.70662C10.5632 9.91901 10.6817 10.1082 10.8586 10.1781C11.0351 10.2503 11.2326 10.1861 11.3487 10.019C12.5502 8.29277 14.7588 7.99764 16.2816 9.35981C17.1298 10.1186 17.6228 11.2777 17.6181 12.5026V19.5003ZM3.39183 0.508304C3.28811 0.500067 3.18402 0.499457 3.08024 0.506474C1.74926 0.403419 0.5966 1.543 0.50569 3.05179C0.50203 3.1125 0.5002 3.17327 0.500092 3.23411C0.488627 4.73008 1.54914 5.95332 2.86882 5.96631C2.9227 5.96686 2.97652 5.96528 3.03029 5.96168H3.05527C4.38372 6.06705 5.53595 4.93168 5.62891 3.42576C5.72186 1.91983 4.72029 0.613678 3.39183 0.508304ZM3.36137 4.96487C3.25953 4.97549 3.15694 4.97457 3.05527 4.962H3.03029C2.18713 5.03546 1.45112 4.32024 1.38632 3.36443C1.32151 2.40869 1.95245 1.5743 2.79562 1.50084C2.89046 1.4926 2.98573 1.49437 3.08024 1.50615C3.92276 1.41817 4.66872 2.12106 4.74639 3.07614C4.82401 4.03127 4.20395 4.87689 3.36137 4.96487Z" fill="#E0E0E0"/>
</svg>
