<svg width="18" height="19" viewBox="0 0 18 19" fill="none" xmlns="http://www.w3.org/2000/svg">
<g clip-path="url(#clip0_49_568)">
<path d="M13.3588 17.378C13.2919 17.4134 13.2975 17.4246 13.3616 17.392C13.3824 17.3836 13.3999 17.3718 13.4151 17.3577C13.4151 17.3459 13.4151 17.3459 13.3588 17.378ZM13.4938 17.3048C13.4617 17.3313 13.4617 17.3313 13.5 17.3138C13.5202 17.302 13.5382 17.2908 13.5382 17.2874C13.5382 17.2722 13.5292 17.2756 13.4938 17.3048ZM13.5816 17.252C13.5495 17.2784 13.5495 17.2784 13.5877 17.261C13.6086 17.2491 13.626 17.2368 13.626 17.234C13.626 17.2199 13.617 17.2227 13.5816 17.252ZM13.6704 17.1996C13.6384 17.2261 13.6384 17.2261 13.6755 17.2081C13.6963 17.1968 13.7137 17.185 13.7137 17.1816C13.7137 17.1676 13.7047 17.1704 13.6704 17.1996ZM13.7902 17.1203C13.7289 17.1614 13.7076 17.1878 13.7638 17.1586C13.8015 17.1355 13.8656 17.0849 13.8544 17.0849C13.8302 17.0939 13.8099 17.1091 13.7897 17.1203H13.7902ZM8.41106 0.506332C8.37 0.509144 8.24681 0.520394 8.13881 0.529394C5.58056 0.761144 3.18712 2.13814 1.67006 4.25933C0.831375 5.42202 0.286875 6.77258 0.0815625 8.19064C0.009 8.68564 0 8.83189 0 9.50295C0 10.1735 0.009 10.3175 0.0815625 10.8125C0.5715 14.1936 2.97675 17.032 6.237 18.0839C6.82369 18.2712 7.4385 18.4006 8.13881 18.4799C8.41106 18.5091 9.58837 18.5091 9.86062 18.4799C11.0711 18.3449 12.0932 18.0462 13.1046 17.5304C13.2598 17.4516 13.2891 17.4308 13.2682 17.4134C12.7732 16.7603 12.2872 16.1067 11.8007 15.4475L10.3624 13.5051L8.56069 10.8361C7.95994 9.94283 7.35694 9.05183 6.74437 8.16758C6.73819 8.16758 6.73031 9.35389 6.72694 10.8006C6.72075 13.3347 6.72075 13.4376 6.68869 13.4961C6.65662 13.5665 6.60375 13.625 6.53344 13.6576C6.47775 13.684 6.42769 13.6896 6.16162 13.6896H5.85731L5.778 13.6401C5.7285 13.6081 5.68744 13.5636 5.661 13.5113L5.62275 13.432L5.62556 9.90458L5.63175 6.37714L5.68744 6.30683C5.72287 6.26352 5.76675 6.22808 5.81625 6.20164C5.88994 6.16621 5.91919 6.16058 6.2235 6.16058C6.58069 6.16058 6.63975 6.17464 6.73369 6.27758C7.46269 7.36433 8.18944 8.45389 8.90437 9.54683C10.0738 11.3198 11.6702 13.7391 12.4549 14.926L13.8819 17.0855L13.9522 17.0388C14.6379 16.5815 15.2617 16.037 15.8001 15.416C16.9341 14.1177 17.6698 12.5208 17.919 10.8164C17.9916 10.3214 18.0006 10.1746 18.0006 9.50408C18.0006 8.83302 17.9916 8.68958 17.919 8.19458C17.4291 4.81339 15.0238 1.97502 11.7636 0.922582C11.1538 0.729644 10.5266 0.598019 9.89156 0.530519C9.72112 0.513082 8.55787 0.492269 8.41162 0.507457L8.41106 0.506332ZM12.0937 5.94964C12.1787 5.99014 12.2428 6.06664 12.2721 6.15439C12.2872 6.20164 12.2901 7.17983 12.2872 9.38314L12.2811 12.5466L11.7247 11.6916L11.1651 10.8361V8.53939C11.1651 7.05046 11.1712 6.21571 11.1791 6.17464C11.2056 6.08071 11.2697 6.00196 11.3552 5.95246C11.4249 5.91702 11.4519 5.91421 11.7304 5.91421C11.9908 5.91421 12.0352 5.91702 12.0937 5.94964Z" fill="white"/>
</g>
<defs>
<clipPath id="clip0_49_568">
<rect width="18" height="18" fill="white" transform="translate(0 0.5)"/>
</clipPath>
</defs>
</svg>
