<svg width="18" height="21" viewBox="0 0 18 21" fill="none" xmlns="http://www.w3.org/2000/svg">
<path d="M8.09249 8.93793C7.78302 9.11454 7.53347 9.3779 7.37542 9.6947C7.21737 10.0115 7.1579 10.3675 7.20455 10.7177C7.2512 11.0679 7.40186 11.3966 7.63748 11.6622C7.87311 11.9277 8.18311 12.1183 8.52829 12.2097C8.87347 12.3011 9.23832 12.2893 9.5767 12.1757C9.91509 12.0622 10.2118 11.852 10.4293 11.5717C10.6469 11.2915 10.7754 10.9538 10.7988 10.6013C10.8222 10.2488 10.7392 9.89744 10.5606 9.59155C10.3209 9.18139 9.9263 8.88211 9.46346 8.75954C9.00062 8.63696 8.50747 8.70113 8.09249 8.93793ZM16.1907 10.8756C16.0721 10.7416 15.9469 10.6073 15.8152 10.4725C15.9072 10.377 15.9962 10.2815 16.0823 10.186C17.7069 8.38177 18.3925 6.57233 17.7572 5.4845C17.148 4.4415 15.3358 4.13068 13.0671 4.56671C12.8436 4.60992 12.6214 4.65867 12.4004 4.71295C12.3581 4.56879 12.3131 4.42546 12.2654 4.28295C11.4958 1.99042 10.2525 0.49921 8.98182 0.5C7.76334 0.50055 6.58569 1.89709 5.83443 4.0575C5.76052 4.27063 5.69214 4.48553 5.6293 4.70221C5.48154 4.66638 5.33316 4.63328 5.18416 4.60291C2.79053 4.11713 0.862604 4.43707 0.228514 5.52551C-0.379504 6.56927 0.256366 8.27533 1.77488 9.99762C1.92547 10.168 2.08034 10.3346 2.23946 10.4974C2.05187 10.6884 1.87424 10.8793 1.70868 11.0691C0.226977 12.7671 -0.372534 14.4453 0.234504 15.4845C0.861431 16.558 2.76222 16.9089 5.07579 16.4589C5.26329 16.4221 5.44975 16.3808 5.63517 16.3349C5.70309 16.5692 5.7776 16.8016 5.8587 17.0319C6.60665 19.1489 7.7777 20.5005 8.99187 20.5001C10.2458 20.4993 11.5028 19.0472 12.2644 16.8413C12.3245 16.667 12.3815 16.486 12.4354 16.2996C12.675 16.3585 12.916 16.4107 13.1586 16.4564C15.3877 16.8732 17.1573 16.5454 17.7632 15.5054C18.3889 14.4311 17.7438 12.6293 16.1907 10.8756ZM0.977551 5.95184C1.36792 5.28184 2.94349 5.02045 5.01018 5.43984C5.14227 5.46669 5.27661 5.49669 5.41322 5.52984C5.21144 6.41211 5.06907 7.30662 4.98704 8.20751C4.24133 8.72606 3.53035 9.29178 2.85858 9.90111C2.71057 9.74981 2.56651 9.59484 2.42641 9.43621C1.12532 7.96051 0.611131 6.58081 0.977551 5.95184ZM4.9096 11.6799C4.39308 11.2933 3.91305 10.8973 3.47736 10.4989C3.91274 10.1031 4.39308 9.70834 4.90855 9.32278C4.89003 9.71555 4.88085 10.1086 4.88101 10.502C4.88129 10.8948 4.89082 11.2874 4.9096 11.6799ZM4.90899 15.6205C4.03212 15.8133 3.12687 15.8448 2.23845 15.7137C1.9949 15.6949 1.75783 15.627 1.54189 15.5141C1.32594 15.4013 1.13571 15.2458 0.982954 15.0574C0.614632 14.4267 1.09602 13.0794 2.36321 11.6271C2.52252 11.4451 2.68706 11.2679 2.85682 11.0954C3.5287 11.7079 4.24083 12.2759 4.98854 12.7955C5.0717 13.7079 5.21575 14.6138 5.41973 15.5075C5.25046 15.5493 5.08021 15.587 4.90899 15.6205ZM12.093 7.58118C11.7537 7.36985 11.4102 7.1653 11.0625 6.96753C10.7204 6.77286 10.3741 6.58551 10.0237 6.40546C10.6237 6.15613 11.2134 5.94318 11.7827 5.76965C11.9169 6.36795 12.0205 6.97256 12.093 7.58118ZM6.65186 4.33521C7.29552 2.48407 8.24792 1.35468 8.98229 1.35437C9.76439 1.354 10.7806 2.57263 11.445 4.552C11.4882 4.68103 11.529 4.81079 11.5675 4.94128C10.6945 5.20891 9.8404 5.53336 9.01078 5.91248C8.18462 5.5289 7.33321 5.20084 6.46237 4.93054C6.52058 4.73059 6.58374 4.53215 6.65186 4.33521ZM6.24682 5.759C6.84065 5.94379 7.42469 6.15807 7.99669 6.401C7.28795 6.76253 6.59752 7.15633 5.92542 7.5824C6.00662 6.9444 6.11466 6.33313 6.24682 5.759ZM5.9269 13.4197C6.26206 13.6318 6.60213 13.836 6.9471 14.0324C7.29899 14.2327 7.65556 14.4245 8.01682 14.608C7.44044 14.8593 6.8514 15.0812 6.252 15.2729C6.11831 14.6908 6.00908 14.0688 5.9269 13.4197ZM11.4463 16.5652C11.1772 17.4123 10.7526 18.2032 10.1938 18.8984C10.0557 19.0976 9.87765 19.2667 9.67086 19.3952C9.46407 19.5236 9.23282 19.6088 8.9914 19.6455C8.25469 19.6459 7.31438 18.5605 6.67474 16.75C6.59941 16.536 6.53011 16.32 6.46683 16.1021C7.34184 15.823 8.1967 15.4857 9.02555 15.0924C9.86199 15.4739 10.7229 15.8008 11.6027 16.0709C11.5546 16.2368 11.5025 16.4016 11.4463 16.5652ZM11.8128 15.241C11.2369 15.065 10.6386 14.8485 10.0301 14.5955C10.3731 14.417 10.7187 14.2285 11.0667 14.03C11.4239 13.8262 11.7719 13.6172 12.1109 13.4031C12.0434 14.0204 11.9439 14.6338 11.8128 15.241ZM12.2643 10.4983C12.265 11.1056 12.2458 11.7124 12.2067 12.3187C11.7083 12.6522 11.1821 12.9777 10.6346 13.2902C10.0893 13.6013 9.54912 13.8873 9.01919 14.1461C8.46154 13.8819 7.91464 13.5972 7.37849 13.2921C6.84536 12.9887 6.32445 12.6657 5.81577 12.3231C5.76928 11.7169 5.74585 11.1097 5.7455 10.5013C5.74508 9.89343 5.76811 9.28634 5.81436 8.67969C6.31266 8.34332 6.83505 8.01801 7.37515 7.70978C7.91774 7.40009 8.46473 7.11536 9.0087 6.8573C9.55949 7.12189 10.1003 7.40544 10.6313 7.70795C11.164 8.01062 11.6864 8.33018 12.1983 8.66663C12.2423 9.27625 12.2642 9.8868 12.2643 10.4983ZM13.2322 5.40546C15.1759 5.03174 16.6415 5.28314 17.0087 5.91168C17.3998 6.5813 16.8392 8.06018 15.4367 9.61804C15.3592 9.70398 15.2788 9.79034 15.1954 9.87701C14.512 9.26638 13.7874 8.70246 13.0265 8.18915C12.9497 7.29812 12.8126 6.41316 12.6163 5.54022C12.8256 5.48932 13.0309 5.4444 13.2322 5.40546ZM13.1008 9.29016C13.614 9.66057 14.1075 10.0571 14.5792 10.478C14.1096 10.9059 13.6177 11.3092 13.1055 11.6863C13.1212 11.2904 13.1289 10.8942 13.1286 10.4979C13.1284 10.0952 13.1192 9.69265 13.1008 9.29016ZM17.0141 15.0789C16.6463 15.7101 15.2255 15.9733 13.3192 15.6168C13.1007 15.576 12.8766 15.5275 12.6467 15.4712C12.8383 14.587 12.9693 13.6911 13.0387 12.7894C13.7983 12.2672 14.5207 11.6938 15.2007 11.0736C15.3197 11.1957 15.4329 11.3174 15.5402 11.4384C16.1483 12.092 16.6295 12.8505 16.9597 13.6763C17.0653 13.894 17.1246 14.1308 17.134 14.372C17.1433 14.6133 17.1025 14.8539 17.0141 15.0789Z" fill="white"/>
</svg>
