<svg width="18" height="19" viewBox="0 0 18 19" fill="none" xmlns="http://www.w3.org/2000/svg">
<g clip-path="url(#clip0_49_572)">
<path d="M6.11398 3.28323C6.78823 2.43123 8.05798 2.01048 8.92348 1.98873C11.3505 1.94223 12.3622 4.99848 12.4402 6.21348L13.5637 6.55398C13.305 2.82948 11.0137 0.875733 8.82148 0.875733C6.76573 0.874983 4.86748 2.38548 4.10248 4.60023C3.05773 7.55298 3.74323 10.3917 5.02423 12.6635C4.91248 12.8112 4.84498 13.0715 4.86748 13.3212C4.88923 14.003 5.46223 14.5707 6.14848 14.5707H6.19348C6.36328 14.5659 6.53038 14.5271 6.68498 14.4567C6.83957 14.3863 6.97853 14.2857 7.09369 14.1609C7.20885 14.036 7.29788 13.8894 7.35555 13.7296C7.41321 13.5698 7.43835 13.4001 7.42948 13.2305C7.42948 12.5487 6.84523 11.9825 6.15973 11.9825H6.11398C6.06898 11.9825 6.00223 11.9825 5.94523 12.0042C5.01298 10.4142 4.61923 8.71023 4.76623 6.87198C4.85548 5.48598 5.30548 4.28223 6.11398 3.28323Z" fill="white"/>
<path d="M0.699093 16.1735C1.45209 17.309 2.99184 18.035 4.67709 18.035C5.12634 18.035 5.59884 18.002 6.05934 17.888C8.98134 17.3202 11.1953 15.5487 12.4651 12.9372L12.4756 12.914C13.1273 12.857 13.6328 12.2772 13.5998 11.5842C13.5653 10.8912 13.0036 10.3355 12.3188 10.3355H12.2731C11.5658 10.3587 11.0146 10.9602 11.0371 11.6765C11.0596 12.0395 11.2066 12.335 11.4076 12.5502C10.6216 14.0952 9.44184 15.23 7.65459 16.1847C6.45234 16.82 5.18259 17.0592 3.94659 16.889C2.91309 16.742 2.10459 16.2747 1.60959 15.5262C0.868593 14.39 0.801093 13.1645 1.41834 11.9382C1.86909 11.0525 2.54259 10.4052 2.99259 10.0865C2.88009 9.79172 2.74509 9.29222 2.67759 8.91797C-0.650157 11.3247 -0.311907 14.6172 0.699093 16.1735Z" fill="white"/>
<path d="M17.5988 15.6725C18.2723 14.3097 18.2168 12.0162 16.497 10.0512L16.4865 10.0737C14.7458 8.0067 12.183 6.8712 9.26025 6.8712H8.87775C8.688 6.4512 8.25 6.18945 7.755 6.18945H7.72125C7.014 6.18945 6.46275 6.8037 6.486 7.51845C6.5085 8.19945 7.0815 8.76795 7.767 8.76795H7.8225C8.0664 8.75754 8.30211 8.677 8.50139 8.536C8.70066 8.39499 8.85504 8.19949 8.946 7.97295H9.36225C11.094 7.97295 12.7335 8.4837 14.229 9.4827C15.3743 10.244 16.1955 11.243 16.656 12.4355C17.0595 13.412 17.0378 14.366 16.6223 15.1617C15.9818 16.4105 14.9025 17.0697 13.476 17.0697C12.5768 17.0697 11.7008 16.7855 11.2508 16.5815C10.9815 16.8072 10.5315 17.1822 10.2053 17.4102C11.1937 17.8632 12.1943 18.125 13.1603 18.125C15.3518 18.125 16.98 16.877 17.5988 15.6725Z" fill="white"/>
</g>
<defs>
<clipPath id="clip0_49_572">
<rect width="18" height="18" fill="white" transform="translate(0 0.5)"/>
</clipPath>
</defs>
</svg>
