<svg width="18" height="13" viewBox="0 0 18 13" fill="none" xmlns="http://www.w3.org/2000/svg">
<path d="M17.9924 9.07023C17.9337 8.59214 17.6677 8.22135 17.2614 7.9306C17.3618 8.00232 17.4468 8.063 17.2594 7.92916C17.0067 7.74878 17.1406 7.8444 17.2578 7.92804C16.2558 7.21433 14.9488 7.37296 13.857 7.76945C13.4194 7.05595 13.4004 6.51145 13.6525 5.7326C13.6852 5.63416 13.6629 5.57953 13.5603 5.53558C13.3112 5.42906 12.9524 5.48542 12.7017 5.55186C12.6151 5.57457 12.5521 5.61866 12.5329 5.70588C12.3517 6.55817 11.7943 7.33882 11.3085 8.05734C10.9664 7.40161 10.9935 6.89413 11.2236 6.21108C11.2517 6.1279 11.2388 6.08367 11.1556 6.03955C10.9003 5.90747 10.5086 5.97233 10.2485 6.04925C9.94938 6.13651 9.50004 7.61701 9.35654 7.91063C9.05662 8.52383 8.79084 9.48089 8.28128 9.96735C7.84886 9.41163 9.07321 8.1562 8.66385 7.65227C8.52541 7.48183 8.27492 7.48623 8.11591 7.63062C8.15405 7.36315 8.17384 7.18733 8.10466 6.96043C8.0315 6.72172 7.84587 6.58472 7.57415 6.59164C6.94151 6.61017 6.38436 7.07733 6.00474 7.51966C5.64344 7.94523 4.69056 8.20967 4.17826 8.46631C3.29823 7.69966 1.39315 6.88615 1.34354 5.58065C1.28983 4.1095 3.04226 3.1111 4.21219 2.51404C5.73375 1.73695 8.07801 0.770011 9.80689 1.61981C10.2656 1.8453 10.4502 2.32895 10.3239 2.7922C9.99459 4.00038 8.66463 4.80641 7.50781 5.17604C6.93866 5.35797 6.31359 5.4934 5.71132 5.4582C4.90431 5.41099 4.27589 4.92299 4.18973 4.89268C4.11769 4.879 4.12335 4.97217 4.14237 5.02149C4.97965 7.2164 9.21953 5.60793 10.3283 4.48111C10.8623 3.93896 11.1866 3.41359 11.325 2.58639C11.4873 1.61668 10.7754 1.00992 10.2351 0.759781C7.49575 -0.508376 3.70879 1.15241 1.63749 2.8455C0.738611 3.5803 -0.385827 4.7478 0.130196 5.97251C0.690236 7.30159 2.40607 7.98309 3.52288 8.79598C2.61922 9.24503 1.48867 9.70944 0.903107 10.5514C0.568279 11.0341 0.449486 11.5484 0.698814 12.0971C1.1408 13.0663 2.7479 12.6463 3.42599 12.2191C4.0472 11.8279 4.46532 11.3026 4.64591 10.6291C4.80253 10.0452 4.7704 9.43849 4.51035 8.88844L5.51529 8.38015C5.24469 9.19141 5.12516 10.2084 5.68689 10.9415C5.91196 11.2346 6.49608 11.2464 6.73514 10.9524C7.04508 10.5677 7.25068 10.0856 7.45595 9.64437C7.43198 9.97389 7.3907 10.3474 7.50436 10.6345C7.63479 10.9641 7.93067 11.0315 8.23533 10.8224C9.16768 10.1824 9.76104 8.40883 10.2204 7.37489C10.3452 7.82591 10.4831 8.2379 10.711 8.65373C10.7674 8.75579 10.7605 8.82157 10.6831 8.90668C10.3426 9.28198 9.52901 9.9079 9.45016 10.4149C9.43174 10.5334 9.51038 10.6468 9.65006 10.674C10.1975 10.7832 10.8045 10.585 11.249 10.2845C11.7127 9.97083 11.8624 9.54315 11.7498 9.03592C11.589 8.30569 12.1363 7.48974 12.6569 6.89033C12.7525 7.34413 12.8965 7.78087 13.1541 8.17726C12.6944 8.58096 12.0087 9.15334 12.1072 9.82746C12.1419 10.0688 12.358 10.2248 12.6175 10.1697C13.1723 10.0529 13.6516 9.81421 14.0016 9.39117C14.3188 9.00955 14.2052 8.59309 14.0668 8.17353C14.9061 7.93394 15.7551 7.88606 16.5921 8.17259C16.9962 8.31005 17.3218 8.54173 17.5149 8.90447C17.7514 9.34898 17.6182 9.75848 17.1616 10.0507C17.046 10.1247 16.966 10.1855 17.0051 10.2174C17.0442 10.2495 17.1774 10.2917 17.4721 10.1066C17.7669 9.92147 17.9471 9.6713 17.9933 9.34287C18.0025 9.25221 18.0022 9.16083 17.9924 9.07023ZM3.97077 9.95824C3.92303 10.5444 3.63201 11.0197 3.15603 11.4037C2.88824 11.6201 2.55478 11.7966 2.22368 11.8288C1.89258 11.861 1.63478 11.7774 1.61274 11.434C1.55072 10.4674 3.05144 9.52062 3.88471 9.23553C3.95573 9.47671 3.99057 9.71598 3.97021 9.9593L3.97077 9.95824ZM7.59545 7.41106C7.45824 8.19537 7.07409 9.60295 6.45941 10.1651C6.37659 10.2404 6.29734 10.236 6.25519 10.138C5.8915 9.29214 6.38425 7.54803 7.41823 7.27877C7.53977 7.24752 7.61518 7.29923 7.59545 7.41106ZM10.0673 10.2857C10.3634 9.97065 10.6591 9.65586 10.9557 9.33907C10.9924 9.69137 10.338 10.3925 10.0673 10.2857ZM12.9049 9.6636C12.8224 9.70835 12.637 9.75202 12.6298 9.69295C12.5777 9.26809 13.0452 8.81848 13.3352 8.60778C13.4918 9.00656 13.3065 9.4457 12.9049 9.6636Z" fill="white"/>
</svg>
