<svg width="18" height="11" viewBox="0 0 18 11" fill="none" xmlns="http://www.w3.org/2000/svg">
<path d="M14.85 3.25898C14.175 3.02651 13.5793 2.60854 13.131 2.05298C12.6369 1.43398 12.0079 0.936198 11.2919 0.597696C10.5758 0.259194 9.79191 0.0889461 9 0.0999751C7.93473 0.024533 6.88013 0.353096 6.04621 1.02023C5.21229 1.68737 4.66024 2.64413 4.5 3.69998C4.81561 3.1719 5.29061 2.75756 5.85665 2.51658C6.4227 2.27561 7.0506 2.22043 7.65 2.35898C8.32382 2.5982 8.91862 3.01861 9.369 3.57397C9.86577 4.18802 10.4961 4.68066 11.2119 5.01442C11.9278 5.34817 12.7103 5.51423 13.5 5.49998C14.5653 5.57542 15.6199 5.24686 16.4538 4.57972C17.2877 3.91258 17.8398 2.95582 18 1.89998C17.6901 2.43437 17.2166 2.85497 16.6494 3.09968C16.0822 3.34438 15.4514 3.40023 14.85 3.25898ZM3.15 7.74097C3.82495 7.97344 4.42072 8.39141 4.869 8.94697C5.36306 9.56597 5.99215 10.0638 6.70815 10.4023C7.42415 10.7408 8.20809 10.911 9 10.9C10.0653 10.9754 11.1199 10.6469 11.9538 9.97972C12.7877 9.31258 13.3398 8.35582 13.5 7.29997C13.1844 7.82806 12.7094 8.24239 12.1433 8.48337C11.5773 8.72434 10.9494 8.77952 10.35 8.64097C9.67618 8.40175 9.08138 7.98134 8.631 7.42598C8.1329 6.81345 7.50236 6.32189 6.78682 5.98828C6.07128 5.65467 5.28939 5.48772 4.5 5.49998C3.43473 5.42453 2.38013 5.7531 1.54621 6.42023C0.712285 7.08737 0.160238 8.04413 0 9.09997C0.309876 8.56558 0.783367 8.14498 1.35057 7.90027C1.91777 7.65557 2.54863 7.59972 3.15 7.74097Z" fill="white"/>
</svg>
