<svg width="18" height="19" viewBox="0 0 18 19" fill="none" xmlns="http://www.w3.org/2000/svg">
<path d="M0 9.5V15.5C0 17.1569 1.34315 18.5 3 18.5H15C16.6569 18.5 18 17.1569 18 15.5V3.5C18 1.84315 16.6569 0.5 15 0.5H3C1.34315 0.5 0 1.84315 0 3.5V9.5ZM14.5051 8.78148C14.5051 8.78072 14.5058 8.78016 14.5066 8.78033C14.9371 8.88055 15.3284 9.10589 15.6312 9.428V9.428C15.9588 9.76906 15.8669 10.1566 15.4733 10.4187C15.2514 10.5665 15.0061 10.7259 14.8118 10.8464C14.7946 10.8579 14.7254 10.783 14.6491 10.6693C14.5626 10.52 14.4397 10.3952 14.2919 10.3063C14.1441 10.2174 13.9762 10.1674 13.8038 10.161C13.2581 10.1235 12.9067 10.4101 12.9096 10.881C12.9051 10.9982 12.9319 11.1145 12.9874 11.2179C13.1069 11.467 13.3301 11.6154 14.0299 11.9178C15.3187 12.4722 15.8702 12.8379 16.213 13.3578C16.596 13.9338 16.681 14.864 16.4218 15.5523C16.1338 16.3011 15.4282 16.8094 14.4302 16.9779C13.9745 17.0301 13.5139 17.0253 13.0594 16.9635C12.3656 16.851 11.7256 16.5206 11.232 16.0203C11.1257 15.903 10.9548 15.6647 10.8514 15.4998C10.7825 15.3901 10.8155 15.2824 10.9296 15.2211V15.2211L11.592 14.841L11.942 14.6381C12.036 14.5837 12.1561 14.6113 12.217 14.7013V14.7013C12.3992 14.962 12.6312 15.1842 12.8995 15.355C13.4755 15.6574 14.2618 15.6157 14.6506 15.2658C14.7811 15.1375 14.8625 14.9676 14.8807 14.7855C14.8988 14.6034 14.8526 14.4208 14.7499 14.2693C14.6059 14.0691 14.3179 13.9006 13.513 13.5493C12.5842 13.149 12.1838 12.9013 11.8181 12.5067C11.5897 12.2464 11.4212 11.9392 11.3242 11.6067C11.2518 11.2269 11.2411 10.8379 11.2925 10.4547C11.484 9.5576 12.1565 8.9312 13.1386 8.74544C13.5929 8.68922 14.0531 8.70176 14.5037 8.78263C14.5045 8.78276 14.5051 8.78221 14.5051 8.78148V8.78148ZM10.2802 9.53456V9.53456C10.2802 9.94175 9.95007 10.2718 9.54288 10.2718H9.1116C8.46622 10.2718 7.94304 10.795 7.94304 11.4404V16.1002C7.94304 16.5579 7.57201 16.929 7.11432 16.929V16.929C6.65663 16.929 6.2856 16.5579 6.2856 16.1002V11.4418C6.2856 10.7949 5.76113 10.2704 5.11416 10.2704H4.66272C4.26507 10.2704 3.94272 9.94804 3.94272 9.5504V9.5504V9.5504C3.9304 9.06477 4.22028 8.79848 4.70606 8.79574C5.28993 8.79244 6.16396 8.79135 7.13088 8.79296H9.52987C9.94086 8.79296 10.2754 9.1236 10.2802 9.53456V9.53456Z" fill="white"/>
</svg>
