<svg width="25" height="20" viewBox="0 0 25 20" fill="none" xmlns="http://www.w3.org/2000/svg">
<path d="M25 20H14V18.125L20.3736 8.315L14 8.375L14 6.875L14 5H24.6441V6.605L18.483 16.685H25V20Z" fill="url(#paint0_linear_141_17)"/>
<path d="M14 20H12.5H11L11.0185 17.8947C10.4568 18.5526 9.77407 19.0702 8.97037 19.4474C8.16667 19.8158 7.28951 20 6.33889 20C5.12901 20 4.04444 19.7018 3.08519 19.1053C2.12593 18.5088 1.36975 17.6974 0.816667 16.6711C0.272222 15.636 0 14.4649 0 13.1579C0 11.8509 0.272222 10.6842 0.816667 9.6579C1.36975 8.62281 2.12593 7.80702 3.08519 7.21053C4.04444 6.61404 5.12901 6.31579 6.33889 6.31579C7.23765 6.31579 8.06728 6.47807 8.82778 6.80263C9.58827 7.12719 10.2494 7.58333 10.8111 8.17105V0H14V20ZM7.05185 17.0921C7.74321 17.0921 8.37407 16.9342 8.94444 16.6184C9.51481 16.2939 9.96852 15.8509 10.3056 15.2895C10.6426 14.7281 10.8111 14.0877 10.8111 13.3684V12.9079C10.8111 12.1974 10.6426 11.5658 10.3056 11.0132C9.96852 10.4518 9.51481 10.0132 8.94444 9.69737C8.37407 9.37281 7.74321 9.21053 7.05185 9.21053C6.32593 9.21053 5.67778 9.38596 5.10741 9.73684C4.53704 10.0789 4.08765 10.5482 3.75926 11.1447C3.43086 11.7325 3.26667 12.3991 3.26667 13.1447C3.26667 13.8991 3.43086 14.5746 3.75926 15.1711C4.08765 15.7675 4.53704 16.2368 5.10741 16.5789C5.67778 16.9211 6.32593 17.0921 7.05185 17.0921Z" fill="url(#paint1_linear_141_17)"/>
<defs>
<linearGradient id="paint0_linear_141_17" x1="21.7625" y1="-10.72" x2="21.7627" y2="19.1223" gradientUnits="userSpaceOnUse">
<stop stop-color="#22FF7A"/>
<stop offset="0.498035" stop-color="#2BE977"/>
<stop offset="1" stop-color="#22C061"/>
</linearGradient>
<linearGradient id="paint1_linear_141_17" x1="23.8452" y1="-7.21053" x2="23.8454" y2="18.9669" gradientUnits="userSpaceOnUse">
<stop offset="0.166" stop-color="#0DAD4D"/>
<stop offset="0.82" stop-color="#21BD5F"/>
<stop offset="1" stop-color="#23F176"/>
</linearGradient>
</defs>
</svg>
