<svg width="430" height="932" viewBox="0 0 430 932" fill="none" xmlns="http://www.w3.org/2000/svg">
<g clip-path="url(#clip0_45_444)">
<path d="M927 0H-892V932H927V0Z" fill="black"/>
<path d="M-892 -695.548C-859.157 -686.559 -775.786 -664.194 -694.942 -641.613C-614.097 -619.032 -492.831 -596.451 -406.933 -560.063C-321.036 -523.675 -245.244 -450.467 -179.558 -423.283C-113.872 -396.1 -78.5028 -424.146 -12.8166 -396.963C52.8695 -369.78 128.661 -287.367 214.558 -260.183C300.456 -233 426.775 -251.841 502.567 -233.863C578.358 -215.885 598.569 -184.099 669.308 -152.313C740.047 -120.527 884.051 -61.3423 927 -43.1482V932H-892V-695.548Z" fill="url(#paint0_linear_45_444)"/>
<path d="M-892 -454.859C-863.627 -441.991 -773.454 -389.58 -721.76 -377.651C-670.066 -365.723 -618.373 -390.614 -581.837 -383.288C-545.302 -375.962 -549.188 -350.226 -502.547 -333.694C-455.906 -317.163 -358.738 -300.632 -301.991 -284.101C-245.244 -267.57 -198.603 -260.244 -162.068 -234.508C-125.532 -208.772 -129.419 -146.216 -82.7782 -129.685C-36.1371 -113.154 61.0317 -142.648 117.778 -135.322C174.525 -127.996 211.06 -111.465 257.701 -85.7287C304.342 -59.9927 350.983 -6.64189 397.624 19.0941C444.265 44.8301 490.906 61.3611 537.547 68.6872C584.189 76.0133 640.935 55.7246 677.471 63.0507C714.006 70.3769 715.172 91.5104 756.76 112.644C798.349 133.777 898.627 176.984 927 189.852V932H-892V-454.859Z" fill="url(#paint1_linear_45_444)"/>
<path d="M-892 -127.874C-836.419 -105.576 -654.519 -24.8763 -558.517 5.91131C-462.514 36.6989 -417.039 21.4619 -315.983 56.852C-214.928 92.2421 -63.3444 182.862 47.8167 218.252C158.978 253.642 260.033 233.803 350.983 269.193C441.933 304.583 497.514 390.6 593.517 430.593C689.519 470.585 871.419 496.056 927 509.148V932H-892V-127.874Z" fill="url(#paint2_linear_45_444)"/>
<path d="M-892 112.815C-869.492 117.748 -807.021 127.944 -756.953 142.412C-706.885 156.881 -656.816 171.349 -591.589 199.625C-526.363 227.9 -420.714 283.791 -365.592 312.066C-310.471 340.342 -305.878 350.208 -260.862 369.278C-215.846 388.349 -160.725 407.42 -95.4984 426.49C-30.2717 445.561 75.3773 464.632 130.498 483.702C185.62 502.773 180.108 521.844 235.229 540.915C290.35 559.985 395.999 579.056 461.226 598.127C526.453 617.197 581.574 636.268 626.589 655.339C671.605 674.409 681.251 698.083 731.32 712.551C781.388 727.019 894.387 737.215 927 742.148V932H-892V112.815Z" fill="url(#paint3_linear_45_444)"/>
</g>
<defs>
<linearGradient id="paint0_linear_45_444" x1="1836.5" y1="-2323.1" x2="319.758" y2="1067.22" gradientUnits="userSpaceOnUse">
<stop stop-color="#666666"/>
<stop offset="1"/>
</linearGradient>
<linearGradient id="paint1_linear_45_444" x1="1836.5" y1="-1841.72" x2="682.48" y2="1185.5" gradientUnits="userSpaceOnUse">
<stop stop-color="#666666"/>
<stop offset="1"/>
</linearGradient>
<linearGradient id="paint2_linear_45_444" x1="1836.5" y1="-1187.75" x2="1124.95" y2="1254.64" gradientUnits="userSpaceOnUse">
<stop stop-color="#666666"/>
<stop offset="1"/>
</linearGradient>
<linearGradient id="paint3_linear_45_444" x1="1836.5" y1="-706.37" x2="1397.6" y2="1242.76" gradientUnits="userSpaceOnUse">
<stop stop-color="#6B6B6B"/>
<stop offset="1" stop-color="#050505"/>
</linearGradient>
<clipPath id="clip0_45_444">
<rect width="430" height="932" fill="white"/>
</clipPath>
</defs>
</svg>
