<svg width="1366" height="700" fill="none" xmlns="http://www.w3.org/2000/svg"><g clip-path="url(#a)"><path d="m0-522 148 34c61 14 152 28 216 51 65 23 122 69 171 86s76 0 125 17c50 17 106 69 171 86 64 17 159 5 216 16s72 31 125 51l194 69v613H0V-522Z" fill="url(#b)"/><path d="M0-342c21 10 89 49 128 58s77-9 105-4c27 6 24 25 59 37 35 13 108 25 151 38 43 12 78 18 105 37 28 19 25 66 60 79 35 12 108-10 150-5 43 6 70 18 105 38 35 19 70 59 105 78 35 20 71 32 106 38 35 5 77-10 105-5 27 6 28 22 59 38l128 58v557H0V-342Z" fill="url(#c)"/><path d="M0-96C42-79 178-19 250 4c73 24 107 12 183 39 75 26 189 94 273 121 83 27 159 12 227 38 69 27 110 91 183 121 72 30 208 50 250 59v318H0V-96Z" fill="url(#d)"/><path d="M0 85c17 3 64 11 101 22 38 11 76 22 125 43s128 63 169 84c42 22 45 29 79 43 34 15 75 29 124 43 49 15 128 29 170 43 41 15 37 29 79 43 41 15 120 29 169 43 49 15 91 29 124 43 34 15 41 32 79 43s123 19 147 22v143H0V85Z" fill="url(#e)"/></g><defs><linearGradient id="b" x1="2049" y1="-1545" x2="1209.1" y2="698" gradientUnits="userSpaceOnUse"><stop stop-color="#666"/><stop offset="1"/></linearGradient><linearGradient id="c" x1="2049" y1="-1383.3" x2="1182.2" y2="890.3" gradientUnits="userSpaceOnUse"><stop stop-color="#666"/><stop offset="1"/></linearGradient><linearGradient id="d" x1="2049" y1="-892.1" x2="1514.5" y2="942.3" gradientUnits="userSpaceOnUse"><stop stop-color="#666"/><stop offset="1"/></linearGradient><linearGradient id="e" x1="1139" y1="-41" x2="1133.5" y2="638.4" gradientUnits="userSpaceOnUse"><stop stop-color="#252525"/><stop offset="1" stop-color="#0A0A0A"/></linearGradient><clipPath id="a"><path fill="#fff" d="M0 0h1366v700H0z"/></clipPath></defs></svg>