<svg width="1366" height="700" viewBox="0 0 1366 700" fill="none" xmlns="http://www.w3.org/2000/svg">
<g clip-path="url(#clip0_10_59)">
<path d="M1366 0H0V700H1366V0Z" fill="black"/>
<path d="M0 -522.407C24.6639 -515.656 87.2722 -498.858 147.983 -481.898C208.694 -464.938 299.761 -447.978 364.267 -420.648C428.772 -393.318 485.689 -338.333 535.017 -317.917C584.344 -297.5 610.906 -318.565 660.233 -298.148C709.561 -277.731 766.478 -215.833 830.983 -195.417C895.489 -175 990.35 -189.151 1047.27 -175.648C1104.18 -162.145 1119.36 -138.272 1172.48 -114.398C1225.61 -90.5247 1333.75 -46.0725 1366 -32.4074V700H0V-522.407Z" fill="url(#paint0_linear_10_59)"/>
<path d="M0 -341.632C21.3073 -331.968 89.0235 -292.603 127.844 -283.644C166.664 -274.684 205.484 -293.379 232.921 -287.877C260.357 -282.375 257.438 -263.045 292.464 -250.629C327.49 -238.213 400.46 -225.797 443.074 -213.381C485.689 -200.965 520.715 -195.462 548.151 -176.133C575.588 -156.803 572.669 -109.819 607.695 -97.4032C642.721 -84.9872 715.691 -107.139 758.305 -101.637C800.92 -96.1342 828.356 -83.7182 863.382 -64.3886C898.408 -45.059 933.433 -4.98862 968.459 14.341C1003.48 33.6706 1038.51 46.0866 1073.54 51.5891C1108.56 57.0915 1151.18 41.8532 1178.61 47.3557C1206.05 52.8581 1206.93 68.7309 1238.16 84.6038C1269.39 100.477 1344.69 132.928 1366 142.593V700H0V-341.632Z" fill="url(#paint1_linear_10_59)"/>
<path d="M0 -96.0426C41.7389 -79.2955 178.339 -18.684 250.433 4.4398C322.528 27.5636 356.678 16.1194 432.567 42.7C508.456 69.2805 622.289 137.343 705.767 163.923C789.244 190.504 865.133 175.603 933.433 202.183C1001.73 228.764 1043.47 293.369 1115.57 323.406C1187.66 353.444 1324.26 372.574 1366 382.407V700H0V-96.0426Z" fill="url(#paint2_linear_10_59)"/>
<path d="M0 84.7324C16.9025 88.4374 63.8157 96.0954 101.415 106.962C139.015 117.829 176.614 128.696 225.597 149.933C274.58 171.17 353.918 213.147 395.312 234.385C436.706 255.622 440.156 263.031 473.961 277.355C507.766 291.678 549.16 306.002 598.142 320.325C647.125 334.649 726.464 348.972 767.858 363.296C809.251 377.619 805.112 391.943 846.506 406.266C887.9 420.59 967.238 434.913 1016.22 449.237C1065.2 463.56 1106.6 477.884 1140.4 492.207C1174.21 506.531 1181.45 524.311 1219.05 535.178C1256.65 546.044 1341.51 553.702 1366 557.407V700H0V84.7324Z" fill="url(#paint3_linear_10_59)"/>
</g>
<defs>
<linearGradient id="paint0_linear_10_59" x1="2049" y1="-1744.81" x2="909.704" y2="801.437" gradientUnits="userSpaceOnUse">
<stop stop-color="#666666"/>
<stop offset="1"/>
</linearGradient>
<linearGradient id="paint1_linear_10_59" x1="2049" y1="-1383.26" x2="1182.15" y2="890.312" gradientUnits="userSpaceOnUse">
<stop stop-color="#666666"/>
<stop offset="1"/>
</linearGradient>
<linearGradient id="paint2_linear_10_59" x1="2049" y1="-892.085" x2="1514.51" y2="942.282" gradientUnits="userSpaceOnUse">
<stop stop-color="#666666"/>
<stop offset="1"/>
</linearGradient>
<linearGradient id="paint3_linear_10_59" x1="2049" y1="-530.535" x2="1719.31" y2="933.386" gradientUnits="userSpaceOnUse">
<stop stop-color="#6B6B6B"/>
<stop offset="1" stop-color="#050505"/>
</linearGradient>
<clipPath id="clip0_10_59">
<rect width="1366" height="700" fill="white"/>
</clipPath>
</defs>
</svg>
